HIERARCHY
ROOT newVegas:Hips
{
	OFFSET 0.000000 96.479958 0.000000
	CHANNELS 6 Xposition Yposition Zposition Xrotation Yrotation Zrotation
	JOINT newVegas:Pelvis
	{
		OFFSET 0.000000 0.000000 0.000000
		CHANNELS 3 Xrotation Yrotation Zrotation
		JOINT newVegas:LeftUpLeg
		{
			OFFSET 18.735201 -5.666702 -4.541200
			CHANNELS 3 Xrotation Yrotation Zrotation
			JOINT newVegas:LeftLeg
			{
				OFFSET -0.021200 -31.938179 0.493100
				CHANNELS 3 Xrotation Yrotation Zrotation
				JOINT newVegas:LeftFoot
				{
					OFFSET 0.021200 -31.938179 -4.336299
					CHANNELS 3 Xrotation Yrotation Zrotation
					JOINT newVegas:LeftToeBase
					{
						OFFSET 0.943001 -26.722000 15.023500
						CHANNELS 3 Xrotation Yrotation Zrotation
						End Site
						{
							OFFSET 0.000000 30.670183 0.000000
						}
					}
				}
				JOINT newVegas:Left_PantLeg
				{
					OFFSET 0.663870 -9.044666 -1.108900
					CHANNELS 3 Xrotation Yrotation Zrotation
					End Site
					{
						OFFSET 1.415995 20.635357 0.000000
					}
				}
			}
		}
		JOINT newVegas:RightUpLeg
		{
			OFFSET -18.735201 -5.666702 -4.541200
			CHANNELS 3 Xrotation Yrotation Zrotation
			JOINT newVegas:RightLeg
			{
				OFFSET 0.018946 -31.938133 0.493100
				CHANNELS 3 Xrotation Yrotation Zrotation
				JOINT newVegas:RightFoot
				{
					OFFSET -0.018946 -31.938126 -4.336299
					CHANNELS 3 Xrotation Yrotation Zrotation
					JOINT newVegas:RightToeBase
					{
						OFFSET -0.943001 -26.722004 15.023500
						CHANNELS 3 Xrotation Yrotation Zrotation
						End Site
						{
							OFFSET 0.000000 30.670187 0.000000
						}
					}
				}
				JOINT newVegas:Right_PantLeg
				{
					OFFSET -0.661674 -9.044716 -1.108900
					CHANNELS 3 Xrotation Yrotation Zrotation
					End Site
					{
						OFFSET -1.415958 20.635269 0.000000
					}
				}
			}
		}
	}
	JOINT newVegas:Spine
	{
		OFFSET 0.000000 10.199997 -0.299500
		CHANNELS 3 Xrotation Yrotation Zrotation
		JOINT newVegas:Spine1
		{
			OFFSET 0.000000 11.900002 -1.516600
			CHANNELS 3 Xrotation Yrotation Zrotation
			JOINT newVegas:Spine2
			{
				OFFSET 0.000000 13.600006 -2.842500
				CHANNELS 3 Xrotation Yrotation Zrotation
				JOINT newVegas:Neck
				{
					OFFSET 0.000000 9.624100 -2.890100
					CHANNELS 3 Xrotation Yrotation Zrotation
					JOINT newVegas:Head
					{
						OFFSET 0.000000 14.068802 -1.351900
						CHANNELS 3 Xrotation Yrotation Zrotation
						JOINT newVegas:Hair_Back
						{
							OFFSET 0.000000 3.231903 -17.524799
							CHANNELS 3 Xrotation Yrotation Zrotation
							End Site
							{
								OFFSET 0.000000 19.849884 0.000000
							}
						}
						JOINT newVegas:Hair_Front
						{
							OFFSET 0.000000 31.260406 4.573800
							CHANNELS 3 Xrotation Yrotation Zrotation
							JOINT newVegas:Hair_Front1
							{
								OFFSET 0.000000 2.284103 11.993300
								CHANNELS 3 Xrotation Yrotation Zrotation
								JOINT newVegas:Hair_Front2
								{
									OFFSET 0.000000 2.284103 11.993300
									CHANNELS 3 Xrotation Yrotation Zrotation
									End Site
									{
										OFFSET 0.000000 12.208862 0.000000
									}
								}
							}
						}
						JOINT newVegas:Jowel
						{
							OFFSET 0.000000 -7.458206 6.864100
							CHANNELS 3 Xrotation Yrotation Zrotation
							End Site
							{
								OFFSET 0.000000 19.849884 0.000000
							}
						}
					}
				}
				JOINT newVegas:LeftShoulder
				{
					OFFSET 15.263000 10.923401 -0.547700
					CHANNELS 3 Xrotation Yrotation Zrotation
					JOINT newVegas:LeftArm
					{
						OFFSET 25.438599 -2.830597 -13.032500
						CHANNELS 3 Xrotation Yrotation Zrotation
						JOINT newVegas:LeftForeArm
						{
							OFFSET 29.960503 0.000000 0.000000
							CHANNELS 3 Xrotation Yrotation Zrotation
							JOINT newVegas:LeftHand
							{
								OFFSET 27.849251 0.000000 0.000000
								CHANNELS 3 Xrotation Yrotation Zrotation
								JOINT newVegas:LeftHandThumb1
								{
									OFFSET 4.487587 -3.305161 6.305391
									CHANNELS 3 Xrotation Yrotation Zrotation
									JOINT newVegas:LeftHandThumb2
									{
										OFFSET 5.480453 -3.164139 3.164143
										CHANNELS 3 Xrotation Yrotation Zrotation
										JOINT newVegas:LeftHandThumb3
										{
											OFFSET 5.159721 -2.978973 2.978967
											CHANNELS 3 Xrotation Yrotation Zrotation
											End Site
											{
												OFFSET 2.494507 5.926697 1.738678
											}
										}
									}
								}
								JOINT newVegas:LeftHandIndex1
								{
									OFFSET 18.578728 -0.527832 5.208049
									CHANNELS 3 Xrotation Yrotation Zrotation
									JOINT newVegas:LeftHandIndex2
									{
										OFFSET 3.192009 0.000000 0.000000
										CHANNELS 3 Xrotation Yrotation Zrotation
										JOINT newVegas:LeftHandIndex3
										{
											OFFSET 3.835129 0.000000 0.000000
											CHANNELS 3 Xrotation Yrotation Zrotation
											End Site
											{
												OFFSET -0.034599 3.816971 0.371180
											}
										}
									}
								}
								JOINT newVegas:LeftHandMiddle1
								{
									OFFSET 18.476105 0.000000 0.000000
									CHANNELS 3 Xrotation Yrotation Zrotation
									JOINT newVegas:LeftHandMiddle2
									{
										OFFSET 3.324875 0.000000 0.000000
										CHANNELS 3 Xrotation Yrotation Zrotation
										JOINT newVegas:LeftHandMiddle3
										{
											OFFSET 4.596550 0.000000 0.000000
											CHANNELS 3 Xrotation Yrotation Zrotation
											End Site
											{
												OFFSET 0.057701 4.578827 0.399218
											}
										}
									}
								}
								JOINT newVegas:LeftHandRing1
								{
									OFFSET 17.732719 0.121887 -4.201567
									CHANNELS 3 Xrotation Yrotation Zrotation
									JOINT newVegas:LeftHandRing2
									{
										OFFSET 2.733170 0.000000 0.000000
										CHANNELS 3 Xrotation Yrotation Zrotation
										JOINT newVegas:LeftHandRing3
										{
											OFFSET 3.178268 0.000000 0.000000
											CHANNELS 3 Xrotation Yrotation Zrotation
											End Site
											{
												OFFSET 0.119102 3.170624 0.185394
											}
										}
									}
								}
								JOINT newVegas:LeftHandPinky1
								{
									OFFSET 15.989624 -0.606689 -7.535461
									CHANNELS 3 Xrotation Yrotation Zrotation
									JOINT newVegas:LeftHandPinky2
									{
										OFFSET 2.538986 0.000000 0.000000
										CHANNELS 3 Xrotation Yrotation Zrotation
										JOINT newVegas:LeftHandPinky3
										{
											OFFSET 2.593102 0.000000 0.000000
											CHANNELS 3 Xrotation Yrotation Zrotation
											End Site
											{
												OFFSET -0.150902 2.584198 0.152708
											}
										}
									}
								}
							}
							JOINT newVegas:Left_Sleeve
							{
								OFFSET 0.267448 -0.649796 0.577675
								CHANNELS 3 Xrotation Yrotation Zrotation
								End Site
								{
									OFFSET 0.000000 15.991241 0.000000
								}
							}
							JOINT newVegas:Left_CapeC
							{
								OFFSET 15.715958 -8.608795 -6.935905
								CHANNELS 3 Xrotation Yrotation Zrotation
								JOINT newVegas:Left_CapeC1
								{
									OFFSET 0.000000 -8.688499 0.000000
									CHANNELS 3 Xrotation Yrotation Zrotation
									End Site
									{
										OFFSET 0.000000 8.688499 0.000000
									}
								}
							}
						}
						JOINT newVegas:Left_CapeB
						{
							OFFSET 26.118385 -8.608795 -7.079235
							CHANNELS 3 Xrotation Yrotation Zrotation
							JOINT newVegas:Left_CapeB1
							{
								OFFSET 0.000000 -8.688499 0.000000
								CHANNELS 3 Xrotation Yrotation Zrotation
								End Site
								{
									OFFSET 0.000000 8.688499 0.000000
								}
							}
						}
						JOINT newVegas:Left_CapeA
						{
							OFFSET 5.115639 -8.608795 -10.395809
							CHANNELS 3 Xrotation Yrotation Zrotation
							JOINT newVegas:Left_CapeA1
							{
								OFFSET 0.000000 -8.688499 0.000000
								CHANNELS 3 Xrotation Yrotation Zrotation
								End Site
								{
									OFFSET 0.000000 8.688499 0.000000
								}
							}
						}
					}
				}
				JOINT newVegas:RightShoulder
				{
					OFFSET -15.263000 10.923401 -0.547700
					CHANNELS 3 Xrotation Yrotation Zrotation
					JOINT newVegas:RightArm
					{
						OFFSET -25.438599 -2.830597 -13.032500
						CHANNELS 3 Xrotation Yrotation Zrotation
						JOINT newVegas:RightForeArm
						{
							OFFSET -29.960503 0.000000 0.000000
							CHANNELS 3 Xrotation Yrotation Zrotation
							JOINT newVegas:RightHand
							{
								OFFSET -27.849251 0.000000 0.000000
								CHANNELS 3 Xrotation Yrotation Zrotation
								JOINT newVegas:RightHandThumb1
								{
									OFFSET -4.487587 -3.305161 6.305391
									CHANNELS 3 Xrotation Yrotation Zrotation
									JOINT newVegas:RightHandThumb2
									{
										OFFSET -5.480453 -3.164139 3.164143
										CHANNELS 3 Xrotation Yrotation Zrotation
										JOINT newVegas:RightHandThumb3
										{
											OFFSET -5.159721 -2.978973 2.978967
											CHANNELS 3 Xrotation Yrotation Zrotation
											End Site
											{
												OFFSET -2.494507 5.926697 1.738678
											}
										}
									}
								}
								JOINT newVegas:RightHandIndex1
								{
									OFFSET -18.578728 -0.527832 5.208049
									CHANNELS 3 Xrotation Yrotation Zrotation
									JOINT newVegas:RightHandIndex2
									{
										OFFSET -3.192009 0.000000 0.000000
										CHANNELS 3 Xrotation Yrotation Zrotation
										JOINT newVegas:RightHandIndex3
										{
											OFFSET -3.835129 0.000000 0.000000
											CHANNELS 3 Xrotation Yrotation Zrotation
											End Site
											{
												OFFSET 0.034599 3.816971 0.371180
											}
										}
									}
								}
								JOINT newVegas:RightHandMiddle1
								{
									OFFSET -18.476105 0.000000 0.000000
									CHANNELS 3 Xrotation Yrotation Zrotation
									JOINT newVegas:RightHandMiddle2
									{
										OFFSET -3.324875 0.000000 0.000000
										CHANNELS 3 Xrotation Yrotation Zrotation
										JOINT newVegas:RightHandMiddle3
										{
											OFFSET -4.596550 0.000000 0.000000
											CHANNELS 3 Xrotation Yrotation Zrotation
											End Site
											{
												OFFSET -0.057701 4.578827 0.399218
											}
										}
									}
								}
								JOINT newVegas:RightHandRing1
								{
									OFFSET -17.732719 0.121887 -4.201567
									CHANNELS 3 Xrotation Yrotation Zrotation
									JOINT newVegas:RightHandRing2
									{
										OFFSET -2.733170 0.000000 0.000000
										CHANNELS 3 Xrotation Yrotation Zrotation
										JOINT newVegas:RightHandRing3
										{
											OFFSET -3.178268 0.000000 0.000000
											CHANNELS 3 Xrotation Yrotation Zrotation
											End Site
											{
												OFFSET -0.119102 3.170624 0.185394
											}
										}
									}
								}
								JOINT newVegas:RightHandPinky1
								{
									OFFSET -15.989624 -0.606689 -7.535461
									CHANNELS 3 Xrotation Yrotation Zrotation
									JOINT newVegas:RightHandPinky2
									{
										OFFSET -2.538986 0.000000 0.000000
										CHANNELS 3 Xrotation Yrotation Zrotation
										JOINT newVegas:RightHandPinky3
										{
											OFFSET -2.593102 0.000000 0.000000
											CHANNELS 3 Xrotation Yrotation Zrotation
											End Site
											{
												OFFSET 0.150902 2.584198 0.152708
											}
										}
									}
								}
							}
							JOINT newVegas:Right_CapeC
							{
								OFFSET -15.715958 -8.608795 -6.935905
								CHANNELS 3 Xrotation Yrotation Zrotation
								JOINT newVegas:Right_CapeC1
								{
									OFFSET 0.000000 -8.688499 0.000000
									CHANNELS 3 Xrotation Yrotation Zrotation
									End Site
									{
										OFFSET 0.000000 8.688499 0.000000
									}
								}
							}
							JOINT newVegas:Right_Sleeve
							{
								OFFSET -0.267448 -0.649994 0.577675
								CHANNELS 3 Xrotation Yrotation Zrotation
								End Site
								{
									OFFSET 0.000000 15.991302 0.000000
								}
							}
						}
						JOINT newVegas:Right_CapeA
						{
							OFFSET -5.115540 -8.608795 -10.395824
							CHANNELS 3 Xrotation Yrotation Zrotation
							JOINT newVegas:Right_CapeA1
							{
								OFFSET 0.000000 -8.688499 0.000000
								CHANNELS 3 Xrotation Yrotation Zrotation
								End Site
								{
									OFFSET 0.000000 8.688499 0.000000
								}
							}
						}
						JOINT newVegas:Right_CapeB
						{
							OFFSET -26.118187 -8.608795 -7.079266
							CHANNELS 3 Xrotation Yrotation Zrotation
							JOINT newVegas:Right_CapeB1
							{
								OFFSET 0.000000 -8.688499 0.000000
								CHANNELS 3 Xrotation Yrotation Zrotation
								End Site
								{
									OFFSET 0.000000 8.688499 0.000000
								}
							}
						}
					}
				}
				JOINT newVegas:Left_Collar
				{
					OFFSET 18.625099 8.655502 8.828100
					CHANNELS 3 Xrotation Yrotation Zrotation
					JOINT newVegas:Left_Collar1
					{
						OFFSET 14.783401 10.540405 -1.259500
						CHANNELS 3 Xrotation Yrotation Zrotation
						End Site
						{
							OFFSET 0.000000 18.199875 0.000000
						}
					}
				}
				JOINT newVegas:Collar_Back
				{
					OFFSET 0.000000 15.630707 -20.132601
					CHANNELS 3 Xrotation Yrotation Zrotation
					End Site
					{
						OFFSET 0.000000 22.523010 0.000000
					}
				}
				JOINT newVegas:Left_Peck
				{
					OFFSET 17.239599 -5.132599 25.482599
					CHANNELS 3 Xrotation Yrotation Zrotation
					End Site
					{
						OFFSET 0.000000 22.523010 0.000000
					}
				}
				JOINT newVegas:Right_Peck
				{
					OFFSET -17.239599 -5.132202 25.482599
					CHANNELS 3 Xrotation Yrotation Zrotation
					End Site
					{
						OFFSET 0.000000 22.523010 0.000000
					}
				}
				JOINT newVegas:Right_Collar
				{
					OFFSET -18.625099 8.655792 8.828100
					CHANNELS 3 Xrotation Yrotation Zrotation
					JOINT newVegas:Right_Collar1
					{
						OFFSET -14.783401 10.539993 -1.259500
						CHANNELS 3 Xrotation Yrotation Zrotation
						End Site
						{
							OFFSET 0.000000 18.199631 0.000000
						}
					}
				}
			}
		}
		JOINT newVegas:Belly
		{
			OFFSET 0.000000 -6.540398 9.014299
			CHANNELS 3 Xrotation Yrotation Zrotation
			End Site
			{
				OFFSET 0.000000 11.566666 0.000000
			}
		}
	}
	JOINT newVegas:ElvisFacialAnim_Joint
	{
		OFFSET 1.000000 -95.330101 -8.825800
		CHANNELS 3 Xrotation Yrotation Zrotation
		End Site
		{
			OFFSET 0.000000 35.315800 0.000000
		}
	}
}
MOTION
Frames: 4
Frame Time: 0.016667
-1.415801 94.924423 4.341805 -5.480808 -12.103209 -1.139327 -0.000000 -0.000001 -0.000000 1.631700 21.306676 1.178154 16.733275 4.377629 1.238334 -13.271110 -0.908176 -2.043949 0.000000 0.000000 0.000000 0.000001 0.000001 -0.000000 -7.305669 -8.066747 -13.300373 13.281823 -12.987506 -0.096872 2.202806 -0.706191 11.123316 0.000000 -0.000002 -0.000000 -0.000000 -0.000002 0.000000 12.261128 1.524593 -1.573198 -3.993952 -8.493234 0.813504 -5.969559 4.580065 -2.629903 2.251065 0.004247 0.016559 2.251060 0.004242 0.016559 -0.000000 0.000001 0.000000 2.250991 0.004245 0.016559 2.251204 0.004255 0.016556 -0.000000 -0.000002 0.000000 -0.000000 0.000001 0.000000 4.233561 -14.085161 -0.897021 5.919385 4.805979 -79.119402 2.144048 -12.162864 0.993675 -12.199778 -3.041355 9.443706 -3.785196 8.458469 12.351790 7.455425 11.608370 -1.288623 0.000001 -0.000000 -0.000003 2.384613 3.620117 -6.815650 0.018939 0.237215 -17.103729 0.000001 -0.000000 -0.000000 -1.935797 5.644688 -11.386961 0.101769 0.660607 -24.767582 0.000000 -0.000000 0.000003 -4.873184 10.020075 -7.875428 -0.044687 0.326917 -30.086085 0.000001 0.000001 0.000001 -6.437508 11.282627 -19.770987 0.059309 0.243030 -30.857599 -0.000000 -0.000003 0.000000 -0.000000 -0.000001 0.000000 -0.000000 -0.000001 0.000000 -0.000001 -0.000000 0.000000 0.000002 0.000000 -0.000000 0.000002 0.000000 0.000000 0.000002 0.000000 -0.000000 0.000002 -0.000001 -0.000000 3.456615 7.912195 4.381425 4.870325 0.880825 78.811825 0.216081 17.510302 -0.089632 -4.831392 -4.161982 -10.247045 -0.464243 -8.992507 -6.084799 7.446388 -11.613891 1.293109 0.000001 0.000001 0.000001 2.362520 -3.634254 8.333203 0.012280 -0.255079 18.622466 -0.000000 0.000001 0.000001 -1.983652 -5.671259 13.530173 0.138083 -0.655751 26.914188 -0.000002 -0.000001 -0.000001 -4.977971 -10.100802 10.695747 -0.008985 -0.341854 32.924025 -0.000001 -0.000001 -0.000002 -6.474089 -11.323144 23.226024 0.083652 -0.233766 34.318005 0.000001 0.000003 -0.000000 0.000000 -0.000000 -0.000000 0.000000 -0.000001 -0.000000 0.000000 -0.000000 -0.000000 -0.000000 0.000000 0.000000 -0.000000 0.000000 0.000000 -0.000000 0.000000 0.000000 -0.000000 -0.000000 0.000000 -0.000000 0.000001 0.000000 -0.000000 0.000001 0.000000 -0.000000 0.000001 0.000000 -0.000000 0.000001 0.000000 -0.000000 0.000001 0.000000 -0.000000 0.000001 0.000000 -0.000000 0.000001 0.000000 0.000000 0.000000 -0.000000 -0.000000 -0.000001 -0.000000 
-1.452909 94.890732 4.269108 -5.459599 -11.926379 -1.142896 -0.000000 -0.000001 -0.000000 1.215516 21.307726 1.380314 17.218767 4.168123 1.228691 -13.393276 -0.890529 -2.028264 -0.000000 0.000000 -0.000000 0.000000 0.000000 0.000001 -7.434628 -8.038202 -13.276073 13.542320 -12.985397 -0.105979 2.059247 -0.704909 11.150785 0.000000 0.000000 0.000000 0.000000 -0.000002 -0.000001 12.284709 1.536980 -1.664377 -4.009647 -8.492098 0.838626 -5.990857 4.581322 -2.607014 2.239398 -0.009843 0.030288 2.239404 -0.009843 0.030288 0.000000 -0.000000 0.000000 2.239401 -0.009841 0.030288 2.239395 -0.009840 0.030291 0.000000 0.000002 -0.000000 0.000000 -0.000000 0.000000 4.134859 -13.909763 -1.027313 5.833299 4.715160 -78.638324 2.464683 -12.082304 0.839264 -11.970999 -2.884897 9.023009 -3.764266 8.410118 12.319237 7.372633 11.506807 -1.247466 0.000000 -0.000002 0.000000 2.321424 3.520244 -6.821859 0.019651 0.237889 -17.855240 0.000001 -0.000000 0.000000 -1.898737 5.569505 -11.597252 0.101645 0.651969 -24.994618 -0.000000 -0.000001 -0.000000 -4.774465 9.989809 -8.066138 -0.044679 0.327381 -30.156088 0.000000 -0.000001 -0.000001 -6.325148 11.199827 -19.848007 0.058967 0.242560 -30.742559 -0.000001 0.000002 -0.000001 -0.000001 -0.000000 0.000000 -0.000001 -0.000000 0.000000 -0.000002 -0.000000 0.000000 0.000001 0.000000 0.000001 0.000001 0.000000 0.000001 0.000001 0.000000 0.000001 0.000001 -0.000000 0.000000 3.381226 7.803407 4.537100 5.024065 1.620399 78.436123 0.420642 17.682388 -0.003081 -5.282816 -3.964286 -10.374953 -0.507292 -9.279080 -6.121812 7.209200 -11.240096 1.219502 0.000001 -0.000003 -0.000001 2.356830 -3.533954 8.694506 0.011841 -0.249326 18.450670 0.000000 0.000001 -0.000000 -1.904666 -5.449621 13.745690 0.133091 -0.634494 26.482344 -0.000001 -0.000000 -0.000000 -4.780959 -9.668433 11.141323 -0.009690 -0.329674 32.368840 -0.000002 0.000002 0.000001 -6.359788 -10.736994 23.396425 0.076961 -0.231832 33.790694 -0.000000 -0.000000 0.000000 -0.000000 -0.000001 0.000001 -0.000000 -0.000001 0.000001 -0.000000 -0.000001 0.000002 -0.000000 0.000000 -0.000001 -0.000000 0.000000 -0.000001 -0.000000 0.000000 -0.000001 -0.000000 -0.000000 -0.000001 -0.000000 -0.000000 0.000000 -0.000000 -0.000000 0.000000 -0.000000 -0.000000 0.000000 -0.000000 -0.000000 0.000000 -0.000000 -0.000000 0.000000 -0.000000 -0.000000 0.000000 -0.000000 -0.000000 0.000000 -0.000000 -0.000000 0.000000 -0.000000 -0.000001 -0.000000 
-1.488020 94.854156 4.189675 -5.402036 -11.735293 -1.157425 -0.000000 0.000001 0.000000 0.709553 21.336785 1.622128 17.764219 3.878981 1.215079 -13.532441 -0.841693 -1.989599 -0.000000 0.000000 -0.000000 -0.000001 0.000001 -0.000000 -7.566598 -8.016945 -13.221084 13.741361 -13.032522 -0.134026 1.949229 -0.678187 11.182576 0.000000 -0.000000 0.000000 0.000000 0.000004 -0.000000 12.262537 1.541680 -1.742140 -4.018683 -8.493298 0.862146 -6.005033 4.580154 -2.583796 2.232179 -0.021781 0.044670 2.232186 -0.021781 0.044672 -0.000000 -0.000001 -0.000000 2.232250 -0.021775 0.044670 2.232176 -0.021779 0.044672 0.000001 -0.000001 -0.000000 -0.000000 -0.000001 -0.000000 4.037699 -13.737900 -1.155442 5.705735 4.632384 -78.161488 2.775911 -11.939532 0.681362 -11.739149 -2.759559 8.593629 -3.751103 8.349395 12.295318 7.298334 11.419272 -1.207312 0.000001 -0.000001 -0.000004 2.257666 3.427926 -6.819776 0.023231 0.238450 -18.684495 0.000003 -0.000000 -0.000001 -1.862099 5.502072 -11.816810 0.101812 0.643599 -25.268184 -0.000000 -0.000000 -0.000001 -4.681522 9.963963 -8.246957 -0.044630 0.328105 -30.263346 -0.000000 -0.000000 -0.000003 -6.218971 11.123546 -19.917508 0.058687 0.242154 -30.644067 0.000000 -0.000005 -0.000004 0.000001 0.000000 0.000000 0.000001 0.000000 0.000000 -0.000000 0.000000 0.000000 0.000002 -0.000001 0.000001 0.000002 0.000000 0.000001 0.000002 -0.000001 0.000001 0.000002 -0.000001 0.000001 3.306759 7.693739 4.690967 5.157375 2.358698 78.058919 0.618397 17.828501 0.086458 -5.725246 -3.745773 -10.502797 -0.553293 -9.581184 -6.161848 6.959092 -10.845802 1.144351 0.000000 0.000000 0.000001 2.350866 -3.428251 9.075736 0.011338 -0.243167 18.269281 -0.000000 0.000000 0.000000 -1.823159 -5.215155 13.972270 0.127789 -0.612057 26.026627 -0.000001 -0.000001 -0.000001 -4.580356 -9.209586 11.607398 -0.010350 -0.316795 31.782769 -0.000001 -0.000001 0.000001 -6.242232 -10.117669 23.571466 0.069920 -0.225100 33.234334 -0.000001 0.000001 0.000001 -0.000000 -0.000000 0.000001 0.000000 -0.000000 0.000001 -0.000000 -0.000000 0.000001 0.000000 0.000000 -0.000001 0.000000 0.000000 -0.000001 0.000000 0.000000 -0.000001 0.000000 -0.000000 -0.000001 -0.000000 0.000000 0.000001 -0.000000 0.000000 0.000001 -0.000000 0.000000 0.000001 -0.000000 0.000000 0.000001 -0.000000 0.000000 0.000001 -0.000000 0.000000 0.000001 -0.000000 0.000000 0.000001 -0.000000 -0.000000 0.000000 -0.000000 0.000001 0.000000 
-1.498616 94.806610 4.081575 -5.271593 -11.503564 -1.200242 0.000000 -0.000000 0.000000 -0.033944 21.389193 1.947386 18.505950 3.491551 1.198127 -13.731625 -0.767042 -1.903016 -0.000000 -0.000000 -0.000000 -0.000001 0.000000 -0.000000 -7.724713 -8.002163 -13.117990 13.829864 -13.156240 -0.176821 1.920161 -0.623334 11.215811 0.000000 0.000002 0.000000 0.000000 0.000002 -0.000000 12.160773 1.525666 -1.769282 -4.021896 -8.515541 0.871766 -6.003063 4.558937 -2.572199 2.231575 -0.027278 0.055900 2.231576 -0.027288 0.055898 0.000000 0.000000 0.000000 2.231647 -0.027280 0.055900 2.231505 -0.027271 0.055899 -0.000000 0.000001 0.000000 0.000000 0.000000 -0.000000 3.942081 -13.569998 -1.281383 5.619343 4.574187 -77.694720 3.051953 -11.904674 0.522635 -11.509797 -2.582424 8.194541 -3.744029 8.279135 12.277943 7.230587 11.342602 -1.167949 -0.000000 -0.000001 -0.000006 2.193376 3.341375 -6.811411 0.027117 0.239052 -19.573119 0.000002 -0.000001 0.000001 -1.826022 5.440488 -12.043523 0.101618 0.635388 -25.577296 0.000001 0.000001 0.000001 -4.593003 9.941414 -8.420114 -0.044566 0.328996 -30.399437 0.000001 -0.000001 -0.000001 -6.117680 11.052296 -19.980947 0.058440 0.241794 -30.558454 -0.000001 -0.000004 0.000003 -0.000001 0.000000 0.000000 -0.000001 0.000000 0.000000 -0.000002 0.000000 0.000000 -0.000001 0.000001 0.000000 -0.000001 0.000001 0.000000 -0.000001 0.000001 0.000000 -0.000001 0.000001 -0.000000 3.233184 7.582014 4.843428 5.215427 3.086636 77.680561 0.821292 17.890999 0.180010 -6.140635 -3.482971 -10.626909 -0.602020 -9.897172 -6.204836 6.697310 -10.433171 1.068088 0.000002 -0.000001 0.000001 2.344621 -3.317803 9.474914 0.008474 -0.236763 18.079514 -0.000000 -0.000001 -0.000001 -1.739754 -4.969232 14.208443 0.122232 -0.588439 25.549598 -0.000001 -0.000001 -0.000001 -4.378351 -8.726578 12.090913 -0.011005 -0.303303 31.169517 0.000000 0.000001 0.000001 -6.122427 -9.468433 23.749514 0.062741 -0.217956 32.652074 0.000000 -0.000000 -0.000000 0.000000 -0.000000 0.000001 0.000000 -0.000000 0.000001 0.000000 -0.000000 0.000001 0.000000 0.000001 -0.000000 -0.000000 0.000001 0.000001 0.000000 0.000001 -0.000000 -0.000000 0.000001 0.000001 -0.000000 0.000000 0.000000 -0.000000 0.000000 0.000000 -0.000000 0.000000 0.000000 -0.000000 0.000000 0.000000 -0.000000 0.000000 0.000000 -0.000000 0.000000 0.000000 -0.000000 0.000000 0.000000 -0.000000 -0.000001 0.000000 0.000000 -0.000000 0.000000 
